<mxfile host="app.diagrams.net" modified="2024-04-21T23:49:48.950Z" agent="Mozilla/5.0 (Windows NT 10.0; Win64; x64) AppleWebKit/537.36 (KHTML, like Gecko) Chrome/123.0.0.0 Safari/537.36" version="24.2.7" etag="JABrY6KlJjzBz6Pt9j1E" type="github">
  <diagram name="PÃ¡gina-1" id="0p7J9UkI7aTK_8D4VF2o">
    <mxGraphModel>
      <root>
        <mxCell id="0" />
        <mxCell id="1" parent="0" />
      </root>
    </mxGraphModel>
  </diagram>
</mxfile>
